<svg width="39" height="39" viewBox="0 0 39 39" fill="none" xmlns="http://www.w3.org/2000/svg">
<path d="M33.0753 24.9502C30.4155 26.0198 27.5 26.2841 24.6913 25.7103C21.8826 25.1365 19.3044 23.7498 17.2773 21.7227C15.2502 19.6956 13.8635 17.1174 13.2897 14.3087C12.7159 11.5 12.9802 8.5845 14.0498 5.92474C10.9 7.19343 8.28971 9.51825 6.66628 12.5007C5.04285 15.4831 4.50741 18.9373 5.15176 22.2713C5.79611 25.6052 7.58011 28.6112 10.1979 30.7739C12.8158 32.9366 16.1044 34.1213 19.5 34.125C22.42 34.1251 25.2732 33.2514 27.6925 31.6163C30.1118 29.9813 31.9865 27.6597 33.0753 24.9502Z" stroke="#899BB4" stroke-width="3" stroke-linecap="round" stroke-linejoin="round"/>
</svg>
