<svg width="39" height="39" viewBox="0 0 39 39" fill="none" xmlns="http://www.w3.org/2000/svg">
<path d="M16.9031 7.14013C17.5954 4.28662 21.6546 4.28662 22.3469 7.14013C22.4507 7.5688 22.6544 7.96689 22.9412 8.302C23.228 8.63711 23.5898 8.89976 23.9973 9.06859C24.4048 9.23741 24.8464 9.30763 25.2862 9.27354C25.7259 9.23944 26.1514 9.10199 26.528 8.87237C29.0354 7.34487 31.9068 10.2146 30.3793 12.7236C30.15 13.1001 30.0127 13.5253 29.9787 13.9648C29.9447 14.4042 30.0149 14.8455 30.1835 15.2527C30.3521 15.66 30.6145 16.0217 30.9492 16.3085C31.2839 16.5952 31.6816 16.799 32.1099 16.9031C34.9634 17.5954 34.9634 21.6546 32.1099 22.3469C31.6812 22.4507 31.2831 22.6544 30.948 22.9412C30.6129 23.228 30.3502 23.5898 30.1814 23.9973C30.0126 24.4048 29.9424 24.8464 29.9765 25.2862C30.0106 25.7259 30.148 26.1514 30.3776 26.528C31.9051 29.0354 29.0354 31.9068 26.5264 30.3793C26.1499 30.15 25.7247 30.0127 25.2852 29.9787C24.8458 29.9447 24.4045 30.0149 23.9973 30.1835C23.59 30.3521 23.2283 30.6145 22.9415 30.9492C22.6548 31.2839 22.451 31.6816 22.3469 32.1099C21.6546 34.9634 17.5954 34.9634 16.9031 32.1099C16.7993 31.6812 16.5956 31.2831 16.3088 30.948C16.022 30.6129 15.6602 30.3502 15.2527 30.1814C14.8452 30.0126 14.4036 29.9424 13.9638 29.9765C13.5241 30.0106 13.0986 30.148 12.722 30.3776C10.2146 31.9051 7.34325 29.0354 8.87075 26.5264C9.10004 26.1499 9.23727 25.7247 9.27129 25.2852C9.3053 24.8458 9.23515 24.4045 9.06652 23.9973C8.89789 23.59 8.63555 23.2283 8.30082 22.9415C7.96609 22.6548 7.56842 22.451 7.14013 22.3469C4.28662 21.6546 4.28662 17.5954 7.14013 16.9031C7.5688 16.7993 7.96689 16.5956 8.302 16.3088C8.63711 16.022 8.89976 15.6602 9.06859 15.2527C9.23741 14.8452 9.30763 14.4036 9.27354 13.9638C9.23944 13.5241 9.10199 13.0986 8.87237 12.722C7.34487 10.2146 10.2146 7.34325 12.7236 8.87075C14.3421 9.85875 16.4546 8.9845 16.9031 7.14013Z" stroke="#899BB4" stroke-width="3" stroke-linecap="round" stroke-linejoin="round"/>
<path d="M24.375 19.5C24.375 20.7929 23.8614 22.0329 22.9471 22.9471C22.0329 23.8614 20.7929 24.375 19.5 24.375C18.2071 24.375 16.9671 23.8614 16.0529 22.9471C15.1386 22.0329 14.625 20.7929 14.625 19.5C14.625 18.2071 15.1386 16.9671 16.0529 16.0529C16.9671 15.1386 18.2071 14.625 19.5 14.625C20.7929 14.625 22.0329 15.1386 22.9471 16.0529C23.8614 16.9671 24.375 18.2071 24.375 19.5Z" stroke="#899BB4" stroke-width="3" stroke-linecap="round" stroke-linejoin="round"/>
</svg>
