<svg xmlns="http://www.w3.org/2000/svg" xmlns:xlink="http://www.w3.org/1999/xlink" version="1.1" width="256" height="256" viewBox="0 0 256 256" xml:space="preserve">

<defs>
</defs>
<g style="stroke: none; stroke-width: 0; stroke-dasharray: none; stroke-linecap: butt; stroke-linejoin: miter; stroke-miterlimit: 10; fill: none; fill-rule: nonzero; opacity: 1;" transform="translate(1.4065934065934016 1.4065934065934016) scale(2.81 2.81)" >
	<path d="M 21.742 73.944 h 2.667 c 0.552 0 1 -0.447 1 -1 s -0.448 -1 -1 -1 h -2.667 l 1.334 -2.311 c 0.276 -0.479 0.112 -1.09 -0.366 -1.366 c -0.48 -0.276 -1.09 -0.111 -1.366 0.366 l -1.334 2.31 l -1.334 -2.31 c -0.276 -0.479 -0.887 -0.643 -1.366 -0.366 c -0.479 0.276 -0.642 0.888 -0.366 1.366 l 1.334 2.311 h -2.668 c -0.552 0 -1 0.447 -1 1 s 0.448 1 1 1 h 2.668 l -1.334 2.311 c -0.276 0.479 -0.112 1.09 0.366 1.366 c 0.158 0.091 0.33 0.134 0.499 0.134 c 0.346 0 0.682 -0.18 0.867 -0.5 l 1.334 -2.31 l 1.334 2.31 c 0.186 0.321 0.521 0.5 0.867 0.5 c 0.169 0 0.341 -0.043 0.499 -0.134 c 0.479 -0.276 0.642 -0.888 0.366 -1.366 L 21.742 73.944 z" style="stroke: none; stroke-width: 1; stroke-dasharray: none; stroke-linecap: butt; stroke-linejoin: miter; stroke-miterlimit: 10; fill: rgb(123,216,247); fill-rule: nonzero; opacity: 1;" transform=" matrix(1 0 0 1 0 0) " stroke-linecap="round" />
	<path d="M 33.828 84.189 h -2.667 l 1.334 -2.311 c 0.276 -0.479 0.112 -1.09 -0.366 -1.366 c -0.48 -0.277 -1.09 -0.111 -1.366 0.366 l -1.334 2.31 l -1.334 -2.31 c -0.276 -0.479 -0.887 -0.644 -1.366 -0.366 c -0.479 0.276 -0.642 0.888 -0.366 1.366 l 1.334 2.311 h -2.668 c -0.552 0 -1 0.447 -1 1 s 0.448 1 1 1 h 2.668 L 26.363 88.5 c -0.276 0.479 -0.112 1.09 0.366 1.366 C 26.887 89.957 27.058 90 27.228 90 c 0.346 0 0.682 -0.18 0.867 -0.5 l 1.334 -2.31 l 1.334 2.31 c 0.186 0.321 0.521 0.5 0.867 0.5 c 0.169 0 0.341 -0.043 0.499 -0.134 c 0.479 -0.276 0.642 -0.888 0.366 -1.366 l -1.334 -2.311 h 2.667 c 0.552 0 1 -0.447 1 -1 S 34.381 84.189 33.828 84.189 z" style="stroke: none; stroke-width: 1; stroke-dasharray: none; stroke-linecap: butt; stroke-linejoin: miter; stroke-miterlimit: 10; fill: rgb(123,216,247); fill-rule: nonzero; opacity: 1;" transform=" matrix(1 0 0 1 0 0) " stroke-linecap="round" />
	<path d="M 45.132 71.944 h -2.668 l 1.334 -2.311 c 0.276 -0.479 0.112 -1.09 -0.366 -1.366 c -0.48 -0.276 -1.091 -0.111 -1.366 0.366 l -1.334 2.31 l -1.334 -2.31 c -0.277 -0.479 -0.887 -0.643 -1.366 -0.366 c -0.479 0.276 -0.642 0.888 -0.366 1.366 L 39 71.944 h -2.667 c -0.552 0 -1 0.447 -1 1 s 0.448 1 1 1 H 39 l -1.334 2.311 c -0.276 0.479 -0.112 1.09 0.366 1.366 c 0.158 0.091 0.33 0.134 0.499 0.134 c 0.346 0 0.682 -0.18 0.867 -0.5 l 1.334 -2.31 l 1.334 2.31 c 0.186 0.321 0.521 0.5 0.867 0.5 c 0.169 0 0.341 -0.043 0.499 -0.134 c 0.479 -0.276 0.642 -0.888 0.366 -1.366 l -1.334 -2.311 h 2.668 c 0.552 0 1 -0.447 1 -1 S 45.684 71.944 45.132 71.944 z" style="stroke: none; stroke-width: 1; stroke-dasharray: none; stroke-linecap: butt; stroke-linejoin: miter; stroke-miterlimit: 10; fill: rgb(123,216,247); fill-rule: nonzero; opacity: 1;" transform=" matrix(1 0 0 1 0 0) " stroke-linecap="round" />
	<path d="M 56.435 84.189 h -2.668 l 1.334 -2.311 c 0.276 -0.479 0.112 -1.09 -0.366 -1.366 c -0.478 -0.276 -1.09 -0.112 -1.366 0.366 l -1.333 2.31 l -1.333 -2.31 c -0.276 -0.479 -0.89 -0.643 -1.366 -0.366 c -0.479 0.276 -0.643 0.888 -0.366 1.366 l 1.334 2.311 h -2.668 c -0.553 0 -1 0.447 -1 1 s 0.447 1 1 1 h 2.668 L 48.97 88.5 c -0.276 0.479 -0.112 1.09 0.366 1.366 C 49.493 89.957 49.665 90 49.835 90 c 0.346 0 0.682 -0.18 0.867 -0.5 l 1.333 -2.31 l 1.333 2.31 c 0.186 0.321 0.521 0.5 0.867 0.5 c 0.17 0 0.342 -0.043 0.499 -0.134 c 0.479 -0.276 0.643 -0.888 0.366 -1.366 l -1.334 -2.311 h 2.668 c 0.553 0 1 -0.447 1 -1 S 56.988 84.189 56.435 84.189 z" style="stroke: none; stroke-width: 1; stroke-dasharray: none; stroke-linecap: butt; stroke-linejoin: miter; stroke-miterlimit: 10; fill: rgb(123,216,247); fill-rule: nonzero; opacity: 1;" transform=" matrix(1 0 0 1 0 0) " stroke-linecap="round" />
	<path d="M 65.854 71.944 h -2.667 l 1.334 -2.311 c 0.276 -0.479 0.112 -1.09 -0.366 -1.366 c -0.478 -0.275 -1.09 -0.114 -1.366 0.366 l -1.334 2.31 l -1.334 -2.31 c -0.277 -0.48 -0.89 -0.642 -1.366 -0.366 c -0.479 0.276 -0.643 0.888 -0.366 1.366 l 1.334 2.311 h -2.668 c -0.553 0 -1 0.447 -1 1 s 0.447 1 1 1 h 2.668 l -1.334 2.311 c -0.276 0.479 -0.112 1.09 0.366 1.366 c 0.157 0.091 0.329 0.134 0.499 0.134 c 0.346 0 0.682 -0.179 0.867 -0.5 l 1.334 -2.31 l 1.334 2.31 c 0.186 0.321 0.521 0.5 0.867 0.5 c 0.17 0 0.342 -0.043 0.499 -0.134 c 0.479 -0.276 0.643 -0.888 0.366 -1.366 l -1.334 -2.311 h 2.667 c 0.553 0 1 -0.447 1 -1 S 66.407 71.944 65.854 71.944 z" style="stroke: none; stroke-width: 1; stroke-dasharray: none; stroke-linecap: butt; stroke-linejoin: miter; stroke-miterlimit: 10; fill: rgb(123,216,247); fill-rule: nonzero; opacity: 1;" transform=" matrix(1 0 0 1 0 0) " stroke-linecap="round" />
	<circle cx="55.19200000000001" cy="28.432000000000002" r="16.632" style="stroke: none; stroke-width: 1; stroke-dasharray: none; stroke-linecap: butt; stroke-linejoin: miter; stroke-miterlimit: 10; fill: rgb(249,193,0); fill-rule: nonzero; opacity: 1;" transform="  matrix(1 0 0 1 0 0) "/>
	<path d="M 55.197 7.645 c -0.553 0 -1 -0.448 -1 -1 V 1 c 0 -0.552 0.447 -1 1 -1 s 1 0.448 1 1 v 5.645 C 56.197 7.197 55.75 7.645 55.197 7.645 z" style="stroke: none; stroke-width: 1; stroke-dasharray: none; stroke-linecap: butt; stroke-linejoin: miter; stroke-miterlimit: 10; fill: rgb(249,193,0); fill-rule: nonzero; opacity: 1;" transform=" matrix(1 0 0 1 0 0) " stroke-linecap="round" />
	<path d="M 82.631 29.434 h -5.645 c -0.553 0 -1 -0.448 -1 -1 s 0.447 -1 1 -1 h 5.645 c 0.553 0 1 0.448 1 1 S 83.183 29.434 82.631 29.434 z" style="stroke: none; stroke-width: 1; stroke-dasharray: none; stroke-linecap: butt; stroke-linejoin: miter; stroke-miterlimit: 10; fill: rgb(249,193,0); fill-rule: nonzero; opacity: 1;" transform=" matrix(1 0 0 1 0 0) " stroke-linecap="round" />
	<path d="M 39.79 14.026 c -0.256 0 -0.512 -0.098 -0.707 -0.293 l -3.991 -3.991 c -0.391 -0.391 -0.391 -1.023 0 -1.414 s 1.023 -0.391 1.414 0 l 3.991 3.991 c 0.391 0.391 0.391 1.023 0 1.414 C 40.302 13.929 40.046 14.026 39.79 14.026 z" style="stroke: none; stroke-width: 1; stroke-dasharray: none; stroke-linecap: butt; stroke-linejoin: miter; stroke-miterlimit: 10; fill: rgb(249,193,0); fill-rule: nonzero; opacity: 1;" transform=" matrix(1 0 0 1 0 0) " stroke-linecap="round" />
	<path d="M 70.604 14.026 c -0.256 0 -0.512 -0.098 -0.707 -0.293 c -0.391 -0.391 -0.391 -1.023 0 -1.414 l 3.991 -3.991 c 0.391 -0.391 1.023 -0.391 1.414 0 s 0.391 1.023 0 1.414 l -3.991 3.991 C 71.116 13.929 70.86 14.026 70.604 14.026 z" style="stroke: none; stroke-width: 1; stroke-dasharray: none; stroke-linecap: butt; stroke-linejoin: miter; stroke-miterlimit: 10; fill: rgb(249,193,0); fill-rule: nonzero; opacity: 1;" transform=" matrix(1 0 0 1 0 0) " stroke-linecap="round" />
	<path d="M 13.958 40.128 c -0.027 -0.411 -0.046 -0.824 -0.046 -1.242 c 0 -10.182 8.254 -18.436 18.436 -18.436 c 7.366 0 13.721 4.321 16.674 10.566 c 2.224 -1.579 4.935 -2.516 7.87 -2.516 c 6.791 0 12.405 4.975 13.437 11.475 c 4.676 1.28 8.117 5.547 8.117 10.629 c 0 6.092 -4.939 11.031 -11.031 11.031 H 17.4 c -6.092 0 -11.031 -4.939 -11.031 -11.031 C 6.369 45.714 9.553 41.575 13.958 40.128 z" style="stroke: none; stroke-width: 1; stroke-dasharray: none; stroke-linecap: butt; stroke-linejoin: miter; stroke-miterlimit: 10; fill: rgb(98,195,247); fill-rule: nonzero; opacity: 1;" transform=" matrix(1 0 0 1 0 0) " stroke-linecap="round" />
</g>
</svg>